<svg width="32" height="32" viewBox="0 0 32 32" fill="none" xmlns="http://www.w3.org/2000/svg">
<path d="M28.6518 3.90625H25.3036V0.732422C25.3036 0.32959 24.9269 0 24.4665 0H21.6763C21.216 0 20.8393 0.32959 20.8393 0.732422V3.90625H11.9107V0.732422C11.9107 0.32959 11.534 0 11.0737 0H8.28348C7.8231 0 7.44643 0.32959 7.44643 0.732422V3.90625H4.09821C2.24972 3.90625 0.75 5.21851 0.75 6.83594V28.3203C0.75 29.9377 2.24972 31.25 4.09821 31.25H28.6518C30.5003 31.25 32 29.9377 32 28.3203V6.83594C32 5.21851 30.5003 3.90625 28.6518 3.90625ZM28.2333 28.3203H4.51674C4.28655 28.3203 4.09821 28.1555 4.09821 27.9541V9.76562H28.6518V27.9541C28.6518 28.1555 28.4634 28.3203 28.2333 28.3203Z" fill="white"/>
</svg>
