<svg width="25" height="25" viewBox="0 0 25 25" fill="none" xmlns="http://www.w3.org/2000/svg">
<path d="M23.75 0H5C4.33696 0 3.70107 0.263392 3.23223 0.732233C2.76339 1.20107 2.5 1.83696 2.5 2.5V6.25H0V8.75H2.5V11.25H0V13.75H2.5V16.25H0V18.75H2.5V22.5C2.5 23.163 2.76339 23.7989 3.23223 24.2678C3.70107 24.7366 4.33696 25 5 25H23.75C24.0815 25 24.3995 24.8683 24.6339 24.6339C24.8683 24.3995 25 24.0815 25 23.75V1.25C25 0.918479 24.8683 0.600537 24.6339 0.366116C24.3995 0.131696 24.0815 0 23.75 0ZM13.75 3.74875C15.81 3.74875 17.5 5.4375 17.5 7.49875C17.4964 8.49231 17.1002 9.44417 16.3977 10.1468C15.6953 10.8495 14.7436 11.246 13.75 11.25C11.6912 11.25 10 9.55875 10 7.49875C10 5.4375 11.6912 3.74875 13.75 3.74875ZM21.25 20H6.25V19.0625C6.25 16.2887 9.63125 13.4375 13.75 13.4375C17.8687 13.4375 21.25 16.2887 21.25 19.0625V20Z" fill="white"/>
</svg>
