<svg width="31" height="31" viewBox="0 0 31 31" fill="none" xmlns="http://www.w3.org/2000/svg">
<path d="M2.70776 26.3113C2.70776 27.4487 3.19403 28.5396 4.05958 29.3439C4.92513 30.1481 6.09907 30.6 7.32315 30.6H13.9578C14.0343 30.6 14.1076 30.5717 14.1617 30.5215C14.2158 30.4712 14.2462 30.403 14.2462 30.3319V18.002C14.2462 17.931 14.2158 17.8628 14.1617 17.8125C14.1076 17.7622 14.0343 17.734 13.9578 17.734H3.28469C3.13168 17.734 2.98493 17.7905 2.87674 17.891C2.76855 17.9916 2.70776 18.1279 2.70776 18.2701V26.3113Z" fill="white"/>
<path d="M14.2462 15.3217V8.08456H16.5539V15.3217C16.5539 15.3928 16.5843 15.4609 16.6384 15.5112C16.6925 15.5615 16.7658 15.5897 16.8423 15.5897H26.9385C27.3316 15.5897 27.7218 15.5274 28.0923 15.4054C28.7666 15.183 29.3504 14.7722 29.7635 14.2293C30.1767 13.6864 30.399 13.0381 30.4 12.3732V11.3011C30.4 10.448 30.0353 9.62986 29.3862 9.02665C28.737 8.42344 27.8565 8.08456 26.9385 8.08456H24.0149C23.9898 8.08419 23.9652 8.07772 23.9436 8.06581C23.922 8.05389 23.9041 8.03694 23.8917 8.01663C23.8794 7.99632 23.8729 7.97335 23.873 7.95001C23.8731 7.92666 23.8798 7.90375 23.8923 7.88353C24.56 6.83608 24.7769 5.59282 24.4994 4.40303C24.222 3.21325 23.4707 2.1649 22.3963 1.46821C21.3219 0.771511 20.0038 0.477971 18.7063 0.646445C17.4088 0.81492 16.2277 1.43295 15.4 2.37662C14.5723 1.43295 13.3913 0.81492 12.0937 0.646445C10.7962 0.477971 9.4781 0.771511 8.40371 1.46821C7.32932 2.1649 6.57809 3.21325 6.30064 4.40303C6.0232 5.59282 6.24005 6.83608 6.90772 7.88353C6.92028 7.90375 6.92695 7.92666 6.92705 7.95001C6.92715 7.97335 6.92069 7.99632 6.9083 8.01663C6.89592 8.03694 6.87804 8.05389 6.85643 8.06581C6.83482 8.07772 6.81024 8.08419 6.78512 8.08456H3.86156C2.94351 8.08456 2.06305 8.42344 1.41389 9.02665C0.764721 9.62986 0.400024 10.448 0.400024 11.3011V12.3732C0.401043 13.0381 0.623368 13.6864 1.03652 14.2293C1.44967 14.7722 2.03341 15.183 2.70772 15.4054C3.07826 15.5274 3.46847 15.5897 3.86156 15.5897H13.9577C14.0342 15.5897 14.1076 15.5615 14.1617 15.5112C14.2158 15.4609 14.2462 15.3928 14.2462 15.3217ZM16.5539 5.40415C16.5539 4.87401 16.723 4.35578 17.04 3.91499C17.357 3.4742 17.8075 3.13064 18.3346 2.92777C18.8617 2.7249 19.4417 2.67181 20.0012 2.77524C20.5608 2.87866 21.0748 3.13395 21.4782 3.50881C21.8816 3.88367 22.1564 4.36128 22.2677 4.88123C22.379 5.40117 22.3219 5.94012 22.1035 6.4299C21.8852 6.91968 21.5155 7.3383 21.0411 7.63283C20.5667 7.92736 20.009 8.08456 19.4385 8.08456H16.5539V5.40415ZM11.1553 2.73044C11.5505 2.70411 11.9473 2.75372 12.3209 2.87616C12.6946 2.99861 13.0371 3.19126 13.3271 3.44212C13.6171 3.69297 13.8483 3.99665 14.0065 4.33421C14.1646 4.67178 14.2462 5.03599 14.2462 5.40415V8.08456H11.3616C10.6157 8.08278 9.89951 7.8126 9.36339 7.33071C8.82728 6.84882 8.51288 6.1927 8.4862 5.50005C8.45951 4.8074 8.72261 4.13207 9.22027 3.61579C9.71793 3.09952 10.4115 2.78244 11.1553 2.73111V2.73044Z" fill="white"/>
<path d="M16.8423 30.6H23.4769C24.701 30.6 25.8749 30.1481 26.7405 29.3439C27.606 28.5396 28.0923 27.4487 28.0923 26.3113V18.2701C28.0923 18.1279 28.0315 17.9916 27.9233 17.891C27.8151 17.7905 27.6684 17.734 27.5154 17.734H16.8423C16.7658 17.734 16.6924 17.7622 16.6383 17.8125C16.5842 17.8628 16.5538 17.931 16.5538 18.002V30.3319C16.5538 30.403 16.5842 30.4712 16.6383 30.5215C16.6924 30.5717 16.7658 30.6 16.8423 30.6Z" fill="white"/>
</svg>
