<svg width="31" height="31" viewBox="0 0 31 31" fill="none" xmlns="http://www.w3.org/2000/svg">
<path d="M16.5329 2.44943C18.0371 1.27104 19.7819 0.681839 21.7524 0.681839C22.8354 0.681839 24.0237 0.992805 25.3173 1.64747C26.6109 2.28577 27.6338 3.03863 28.3858 3.90606C29.9352 6.00099 30.582 8.43961 30.3563 11.2219C30.1157 14.0043 29.2733 16.181 27.8143 17.7195L16.3975 30.1417C16.1118 30.4527 15.7508 30.6 15.3296 30.6C14.9084 30.6 14.5625 30.4527 14.2767 30.1417C14.1377 29.9926 14.0286 29.8139 13.9561 29.6168C13.8837 29.4196 13.8494 29.2083 13.8555 28.9961C13.8555 28.5378 13.9909 28.145 14.2767 27.834L21.1808 20.3218C21.5569 19.9617 21.5569 19.5853 21.1808 19.1761C20.8048 18.7669 20.4588 18.7669 20.1279 19.1761L13.2237 26.6884C13.0845 26.841 12.9177 26.9605 12.7339 27.0393C12.5501 27.1182 12.3532 27.1548 12.1558 27.1467C11.7346 27.1467 11.3886 26.9994 11.1028 26.6884C10.9639 26.5393 10.8548 26.3605 10.7823 26.1634C10.7099 25.9663 10.6756 25.7549 10.6817 25.5427C10.6817 25.0845 10.817 24.6917 11.1028 24.3807L18.007 16.8684C18.4131 16.4593 18.4131 16.0501 18.007 15.6409C17.6611 15.2318 17.3301 15.2318 16.9541 15.6409L10.0499 23.235C9.90912 23.3853 9.74206 23.5032 9.55862 23.5819C9.37517 23.6606 9.17908 23.6985 8.98195 23.6933C8.56078 23.6933 8.19978 23.546 7.8839 23.235C7.58306 22.9241 7.43264 22.5476 7.43264 22.0894C7.43264 21.6311 7.5981 21.2219 7.92902 20.8619L14.8482 13.3332C15.2243 12.9241 15.2243 12.5476 14.8482 12.1876C14.4722 11.8275 14.1112 11.8275 13.7803 12.1876L6.80089 19.7326C6.46997 20.0599 6.12401 20.2399 5.74796 20.2399C5.3268 20.2399 4.96579 20.0763 4.69504 19.7326C4.40925 19.4052 4.25883 19.0124 4.25883 18.5542C4.25883 18.0959 4.40925 17.7195 4.69504 17.4085C9.29783 12.3676 12.1407 9.32341 13.2237 8.19411L18.5786 13.9552C19.1652 14.5607 19.8421 14.8717 20.6694 14.8717C21.7223 14.8717 22.5496 14.4134 23.1664 13.4969C23.5875 12.8259 23.7379 12.0894 23.6176 11.271C23.4973 10.4527 23.1814 9.76531 22.67 9.19248L16.5329 2.44943ZM19.6315 12.8095L13.2237 5.82096L2.57415 17.4085C1.31064 16.0174 0.588633 13.8897 0.423173 10.9928C0.257713 8.11228 0.979719 5.60819 2.57415 3.51326C4.36412 1.582 6.50005 0.600006 8.98195 0.600006C11.4789 0.600006 13.5998 1.582 15.3296 3.51326L21.7524 10.5018C22.0382 10.8128 22.1736 11.1892 22.1736 11.6475C22.1736 12.1057 22.0382 12.4985 21.7524 12.8095C21.4666 13.1041 21.1207 13.2678 20.6694 13.2678C20.2633 13.2678 19.9173 13.1041 19.6315 12.8095Z" fill="white"/>
</svg>
